<mxfile host="65bd71144e">
    <diagram id="R2lEEEUBdFMjLlhIrx00" name="Page-1">
        <mxGraphModel dx="1146" dy="647" grid="1" gridSize="10" guides="1" tooltips="1" connect="1" arrows="1" fold="1" page="1" pageScale="1" pageWidth="1100" pageHeight="850" background="none" math="0" shadow="0">
            <root>
                <mxCell id="0"/>
                <mxCell id="1" parent="0"/>
                <mxCell id="2" value="Student/Teacher/Sponsor" style="shape=swimlane;whiteSpace=wrap;html=1;" parent="1" vertex="1">
                    <mxGeometry x="60" y="20" width="140" height="540" as="geometry"/>
                </mxCell>
                <mxCell id="3" value="System" style="shape=swimlane;whiteSpace=wrap;html=1;" parent="1" vertex="1">
                    <mxGeometry x="260" y="20" width="140" height="540" as="geometry"/>
                </mxCell>
                <mxCell id="4" value="Blob Storage" style="shape=swimlane;whiteSpace=wrap;html=1;" parent="1" vertex="1">
                    <mxGeometry x="460" y="20" width="140" height="540" as="geometry"/>
                </mxCell>
                <mxCell id="5" value="Panelist" style="shape=swimlane;whiteSpace=wrap;html=1;" parent="1" vertex="1">
                    <mxGeometry x="660" y="20" width="140" height="540" as="geometry"/>
                </mxCell>
                <mxCell id="6" value="Submit Proposal" style="shape=ellipse;whiteSpace=wrap;html=1;" parent="1" vertex="1">
                    <mxGeometry x="80" y="40" width="100" height="40" as="geometry"/>
                </mxCell>
                <mxCell id="7" value="Upload Attachment" style="shape=ellipse;whiteSpace=wrap;html=1;" parent="1" vertex="1">
                    <mxGeometry x="280" y="100" width="100" height="40" as="geometry"/>
                </mxCell>
                <mxCell id="8" value="Attachment URL" style="shape=ellipse;whiteSpace=wrap;html=1;" parent="1" vertex="1">
                    <mxGeometry x="480" y="160" width="100" height="40" as="geometry"/>
                </mxCell>
                <mxCell id="9" value="Assign Status 'Submitted'" style="shape=ellipse;whiteSpace=wrap;html=1;" parent="1" vertex="1">
                    <mxGeometry x="280" y="220" width="100" height="40" as="geometry"/>
                </mxCell>
                <mxCell id="10" value="Send Notification" style="shape=ellipse;whiteSpace=wrap;html=1;" parent="1" vertex="1">
                    <mxGeometry x="480" y="280" width="100" height="40" as="geometry"/>
                </mxCell>
                <mxCell id="11" value="Visit Proposal" style="shape=ellipse;whiteSpace=wrap;html=1;" parent="1" vertex="1">
                    <mxGeometry x="680" y="340" width="100" height="40" as="geometry"/>
                </mxCell>
                <mxCell id="12" value="Approve/Reject/Other Status" style="shape=ellipse;whiteSpace=wrap;html=1;" parent="1" vertex="1">
                    <mxGeometry x="680" y="400" width="100" height="40" as="geometry"/>
                </mxCell>
                <mxCell id="13" value="Update Status" style="shape=ellipse;whiteSpace=wrap;html=1;" parent="1" vertex="1">
                    <mxGeometry x="280" y="460" width="100" height="40" as="geometry"/>
                </mxCell>
                <mxCell id="14" value="Notify Status" style="shape=ellipse;whiteSpace=wrap;html=1;" parent="1" vertex="1">
                    <mxGeometry x="80" y="520" width="100" height="40" as="geometry"/>
                </mxCell>
                <mxCell id="15" style="edgeStyle=elbowEdgeStyle;html=1;rounded=0;orthogonalLoop=1;jettySize=auto;" parent="1" source="6" target="7" edge="1">
                    <mxGeometry relative="1" as="geometry"/>
                </mxCell>
                <mxCell id="16" style="edgeStyle=elbowEdgeStyle;html=1;rounded=0;orthogonalLoop=1;jettySize=auto;" parent="1" source="7" target="8" edge="1">
                    <mxGeometry relative="1" as="geometry"/>
                </mxCell>
                <mxCell id="17" style="edgeStyle=elbowEdgeStyle;html=1;rounded=0;orthogonalLoop=1;jettySize=auto;" parent="1" source="8" target="9" edge="1">
                    <mxGeometry relative="1" as="geometry"/>
                </mxCell>
                <mxCell id="18" style="edgeStyle=elbowEdgeStyle;html=1;rounded=0;orthogonalLoop=1;jettySize=auto;" parent="1" source="9" target="10" edge="1">
                    <mxGeometry relative="1" as="geometry"/>
                </mxCell>
                <mxCell id="19" style="edgeStyle=elbowEdgeStyle;html=1;rounded=0;orthogonalLoop=1;jettySize=auto;" parent="1" source="10" target="11" edge="1">
                    <mxGeometry relative="1" as="geometry"/>
                </mxCell>
                <mxCell id="20" style="edgeStyle=elbowEdgeStyle;html=1;rounded=0;orthogonalLoop=1;jettySize=auto;" parent="1" source="11" target="12" edge="1">
                    <mxGeometry relative="1" as="geometry"/>
                </mxCell>
                <mxCell id="21" style="edgeStyle=elbowEdgeStyle;html=1;rounded=0;orthogonalLoop=1;jettySize=auto;" parent="1" source="12" target="13" edge="1">
                    <mxGeometry relative="1" as="geometry"/>
                </mxCell>
                <mxCell id="22" style="edgeStyle=elbowEdgeStyle;html=1;rounded=0;orthogonalLoop=1;jettySize=auto;" parent="1" source="13" target="14" edge="1">
                    <mxGeometry relative="1" as="geometry"/>
                </mxCell>
            </root>
        </mxGraphModel>
    </diagram>
</mxfile>